PathFileType	4	(X/Y/Z)	C:\Users\WrightLab\Desktop\Jo\P2_Trial18.trc
DataRate	CameraRate	NumFrames	NumMarkers	Units	OrigDataRate	OrigDataStartFrame	OrigNumFrames
100.00	100.00	       8	19	mm	100.00	163	       433
Frame#	Time	Headset_Front			Headset_Back			Headset_Left			Headset_Right			Left_Shoulder			Right_Shoulder			Sternum			C7			Left Elbow			Right Elbow			Left Wrist			Right Wrist			Left ASIS			Right ASIS			S2			Left Knee			Right Knee			Left Ankle			Right Ankle			
		X1	Y1	Z1	X2	Y2	Z2	X3	Y3	Z3	X4	Y4	Z4	X5	Y5	Z5	X6	Y6	Z6	X7	Y7	Z7	X8	Y8	Z8	X9	Y9	Z9	X10	Y10	Z10	X11	Y11	Z11	X12	Y12	Z12	X13	Y13	Z13	X14	Y14	Z14	X15	Y15	Z15	X16	Y16	Z16	X17	Y17	Z17	X18	Y18	Z18	X19	Y19	Z19	

163	1.620	-589.88708	1484.88135	299.88983	-696.43829	1683.01550	90.39706	-557.28546	1579.55725	117.71017	-716.86163	1562.79944	285.63885	-602.66089	1425.34912	-6.18683	-831.25067	1438.70862	236.23532	-666.40265	1324.50891	174.55626	-804.59827	1417.09973	50.65071	-479.03406	1227.18237	59.25681	-965.98694	1117.03247	257.37189	-544.63477	1143.59338	-51.65379	-981.81305	860.83221	287.61539	-608.66443	1021.85852	180.88802	-827.49341	934.45404	26.46152	-710.39838	1016.82147	269.05139	-649.67108	447.72516	101.57481	-850.73346	545.28198	291.02393	-710.34973	136.50615	-72.93902	-739.91418	172.04935	446.50821	
164	1.630	-585.40259	1486.44739	307.80307	-693.58887	1683.39465	98.15465	-554.93469	1580.25671	124.64809	-712.26978	1563.33618	293.96356	-602.10461	1425.92737	-1.28972	-826.77875	1438.42102	246.55928	-662.48950	1324.81506	182.15434	-803.84430	1417.69946	59.75482	-478.59586	1226.02417	65.53101	-959.03528	1115.72388	271.99689	-546.33984	1143.69055	-47.50733	-972.28265	860.97028	306.01749	-605.11414	1020.59448	185.03690	-827.95898	934.76001	36.71062	-704.52295	1016.44592	275.94312	-639.89685	453.58017	117.60684	-849.99780	546.81299	303.83157	-705.73285	146.85045	-63.03391	-734.71954	162.60527	441.27155	
165	1.640	-579.85620	1488.72058	322.82925	-691.89368	1684.28149	105.07034	-552.30304	1581.08691	130.45993	-707.95209	1564.26660	302.04868	-601.19983	1427.02966	4.38964	-821.91766	1438.16785	257.23447	-660.42078	1323.63110	186.74580	-802.62787	1418.92847	68.79745	-476.78546	1224.72839	67.48646	-951.71124	1115.33252	287.31183	-547.51636	1144.34619	-43.10727	-962.09106	859.41376	322.11108	-601.63080	1019.76300	188.66238	-828.11932	934.80133	46.38067	-698.61749	1016.35236	282.56720	-628.34894	459.12012	132.83704	-849.05090	547.01929	316.44522	-700.45123	158.48169	-50.68283	-730.75757	153.70680	439.26694	
166	1.650	-576.08179	1488.01855	321.87299	-690.02850	1685.34265	112.20548	-549.07471	1581.96448	137.60931	-702.89038	1565.07471	309.81396	-600.13489	1428.42273	10.68929	-816.89484	1438.43103	267.29547	-656.78766	1324.11975	193.03000	-801.03870	1419.73877	78.24509	-475.32840	1224.25269	70.78602	-942.27179	1112.83301	303.93274	-549.58313	1144.42163	-38.04557	-952.27466	859.17657	338.91022	-596.94592	1019.75269	193.37265	-828.08051	935.45709	55.44054	-692.43488	1015.82422	288.56708	-617.19214	466.01730	148.72462	-847.85706	548.10126	329.08719	-692.84412	171.17676	-37.49532	-728.51666	145.90898	436.36661	
167	1.660	-571.66553	1489.59741	329.68048	-686.91876	1686.02051	120.17769	-545.97754	1582.77429	143.63261	-698.39551	1566.02710	317.78354	-600.05334	1429.07776	17.88707	-811.94501	1438.91064	277.17499	-652.17664	1323.84521	199.00017	-798.98053	1421.68628	88.29865	-473.60345	1223.89282	72.59734	-933.70190	1112.39636	318.88403	-551.13654	1145.10852	-34.71159	-941.88129	858.87714	355.62332	-592.80505	1020.94922	197.68132	-827.44226	935.77985	64.49416	-686.33960	1015.63397	293.76935	-605.20459	472.85623	162.13297	-845.91766	547.91718	342.06042	-684.08051	181.83592	-21.76579	-728.13025	138.25052	433.50238	
168	1.670	-566.68665	1489.63184	335.49283	-682.66241	1686.26660	128.62296	-542.95044	1582.93933	151.59709	-694.29401	1566.93347	325.80411	-598.97638	1430.52161	23.60324	-806.29193	1439.35376	287.22769	-648.77136	1324.24426	204.67990	-797.66254	1423.42749	96.59901	-471.26379	1224.30042	76.68594	-925.15076	1112.44312	333.50430	-551.01837	1146.06909	-30.16119	-930.77820	858.65167	371.45035	-589.01538	1022.06445	201.54924	-825.51477	935.72125	74.18004	-680.67816	1015.77521	299.58798	-592.57635	480.23511	176.18639	-844.04364	548.14423	356.13174	-674.82928	191.76549	-5.75826	-727.39819	131.86206	431.17062	
169	1.680	-562.10931	1490.58252	343.38052	-680.23425	1687.03455	136.19136	-538.88782	1582.99744	158.89722	-689.22571	1567.84692	334.01178	-597.92084	1432.43848	30.14238	-799.13373	1438.21289	296.50061	-644.25171	1324.59241	211.31522	-795.40924	1425.00256	105.94172	-470.39526	1224.61292	78.07296	-916.21564	1112.31445	347.79034	-551.76636	1147.36646	-26.73212	-920.37970	859.70654	388.63919	-585.60974	1023.78149	205.43477	-824.39990	937.18665	81.59553	-675.64001	1016.81482	305.06903	-579.43402	486.98605	188.26888	-840.30273	548.68817	371.48120	-664.45929	201.69212	8.71491	-728.16315	127.72337	427.36856	
170	1.690	-557.31573	1491.04175	350.40228	-676.34131	1687.85840	144.14705	-535.34363	1584.08057	165.72585	-684.61591	1568.46777	341.68991	-596.65173	1433.79993	36.42696	-793.80927	1438.87207	306.50739	-640.17133	1324.69934	218.28294	-793.17175	1426.76111	115.73038	-468.19003	1224.61230	79.78240	-906.65912	1112.63538	361.29041	-552.24170	1149.43604	-21.81132	-909.47980	860.49640	405.16074	-582.71643	1025.32825	210.36841	-822.44489	938.40302	90.10638	-670.64667	1016.88116	308.35400	-565.78345	493.83575	202.38174	-835.05231	549.62012	386.64624	-654.10016	208.63911	24.97518	-728.93732	125.66508	424.21619	
